<?xml version="1.0" encoding="utf-8"?>
<!-- Generator: Adobe Illustrator 16.0.4, SVG Export Plug-In . SVG Version: 6.00 Build 0)  -->
<!DOCTYPE svg PUBLIC "-//W3C//DTD SVG 1.1//EN" "http://www.w3.org/Graphics/SVG/1.1/DTD/svg11.dtd">
<svg version="1.1" id="Layer_1" xmlns="http://www.w3.org/2000/svg" xmlns:xlink="http://www.w3.org/1999/xlink" x="0px" y="0px"
	 width="215px" height="215px" viewBox="0 0 215 215" enable-background="new 0 0 215 215" xml:space="preserve">
<g>
	<path fill="#41AF49" d="M200.303,189.991h-63.119c1.146-1.737,2.235-3.42,3.292-5.064c2.523-1.114,3.437-2.438,7.986-6.983
		c1.071-1.055,1.897-2.348,2.396-3.777c5.569,0.253,7.572-2.741,12.677-7.841c2.631-2.649,3.598-6.534,2.501-10.115
		c2.095-1.089,2.471-1.736,7.36-6.621c2.15-2.168,3.099-5.285,2.526-8.29c2.379-1.164,3.005-2.169,7.588-6.752
		c1.953-1.933,3.043-4.564,3.043-7.299c0-2.741-1.09-5.371-3.043-7.288l-2.166-2.185c-4.744-15.881-12.1-30.842-21.786-44.309
		l7.216-8.698c3.42-4.102,4.151-9.81,1.88-14.646c-2.255-4.831-7.127-7.91-12.462-7.893c-7.408,0-10.6,4.997-13.71,8.754
		c-3.401-3.185-7.054-6.086-10.922-8.685V35.32c-0.036-5.925-3.867-11.173-9.486-12.996c-5.641-1.842-11.814,0.141-15.344,4.921
		L94.577,8.126c-1.47-2.341-4.048-3.739-6.805-3.739H29.648c-2.883,0-5.55,1.539-7.002,4.046c-1.433,2.508-1.433,5.587,0.036,8.075
		L49.34,62.263c1.88,3.204,2.396,7.035,1.448,10.631L43.97,98.71c-3.438,12.874,1.662,26.492,12.708,33.96l21.393,14.393
		c5.191,15.056,12.14,29.464,20.658,42.929H14.697c-5.691,0-10.311,4.618-10.311,10.311c0,5.693,4.619,10.312,10.311,10.312h185.605
		c5.692,0,10.312-4.618,10.312-10.312C210.614,194.609,205.995,189.991,200.303,189.991L200.303,189.991z M138.719,177.961
		c-0.643,0.646-1.521,1.005-2.433,1.005c-0.913,0-1.788-0.358-2.435-1.005l-10.168-10.206c-2.059-2.059-2.596-5.156-1.343-7.768
		c1.237-2.613,3.992-4.171,6.856-3.868c1.125,1.508,14.894,15.108,15.236,15.436C144.091,172.806,144.058,172.645,138.719,177.961
		L138.719,177.961z M158.663,161.453l-4.885,4.89c-0.646,0.643-1.521,1.005-2.437,1.005c-0.913,0-1.788-0.362-2.436-1.005
		c-14.377-14.431-14.088-13.981-14.604-14.986c-1.522-2.47-1.294-5.637,0.572-7.872c1.859-2.222,4.941-3.012,7.645-1.953
		c0.695,1.665,1.718,3.168,2.969,4.455c8.611,8.629,9.651,10.403,13.534,11.229C159.935,158.54,159.773,160.308,158.663,161.453
		L158.663,161.453z M168.527,144.718l-4.852,4.854c-0.7,0.695-1.663,1.054-2.647,0.984c-1.719-0.074-1.521-0.289-10.656-9.4
		c-1.964-1.934-2.593-4.852-1.57-7.409c0.998-2.58,3.437-4.28,6.191-4.372c0.608,1.201,1.396,2.291,2.346,3.258
		c6.659,6.677,7.896,8.593,11.728,9.472c0.302,0.913,0.105,1.916-0.539,2.632V144.718z M178.64,129.662l-4.829,4.854
		c-0.647,0.643-1.521,0.998-2.435,0.998c-0.916,0-1.793-0.355-2.438-0.998l-6.729-6.733c-1.736-1.736-2.437-4.26-1.792-6.639
		c0.628-2.384,2.47-4.245,4.835-4.872c2.379-0.646,4.923,0.019,6.66,1.755l6.727,6.8c0.664,0.647,1.022,1.522,1.022,2.435
		c0,0.897-0.358,1.772-1.022,2.42V129.662z M171.463,110.006c-3.381-1.089-7.054-0.893-10.275,0.591
		c-2.131-8.77-6.854-16.704-13.605-22.716l7.447-8.967c6.787,9.626,12.301,20.085,16.434,31.111V110.006z M160.635,50.714
		c1.392,1.163,2.271,2.833,2.433,4.656c0.161,1.811-0.395,3.617-1.558,5.013l-19.403,23.359c-3.278-2.112-6.825-3.795-10.546-4.99
		v-3.869l19.385-23.308C153.434,48.749,157.696,48.373,160.635,50.714L160.635,50.714z M138.097,56.281l-6.536,7.861V50.731
		C133.673,52.365,135.841,54.207,138.097,56.281L138.097,56.281z M117.812,28.447c3.795,0,6.874,3.079,6.874,6.874v41.818
		c-4.545-0.752-9.201-0.752-13.748,0V35.32C110.938,31.525,114.017,28.447,117.812,28.447L117.812,28.447z M92.515,84.371
		L72.592,60.365c-2.381-2.918-1.951-7.194,0.931-9.595c2.902-2.417,7.179-2.059,9.633,0.805l20.908,25.17v2.007
		C99.962,80.059,96.081,81.937,92.515,84.371L92.515,84.371z M50.608,100.465L57.43,74.65c1.434-5.37,0.664-11.063-2.15-15.86
		C26.889,10.098,28.108,12.727,28.607,11.852c0.518-0.861-2.811-0.591,59.165-0.591c0.929,0-0.34-1.596,16.291,24.597v30.126
		L88.417,47.189c-4.852-5.838-13.514-6.64-19.352-1.772c-5.836,4.854-6.642,13.514-1.771,19.352l19.867,23.919
		c-5.852,5.514-10.095,12.511-12.276,20.242c-1.596-0.821-3.529-0.284-4.478,1.22c-0.967,1.502-0.611,3.491,0.806,4.562
		c35.104,23.617,33.422,21.947,34.979,25.064l0.021,0.019c1.324,2.723,1.324,5.89-0.021,8.593c-0.879,1.774-2.468,3.061-4.365,3.56
		c-1.898,0.52-3.923,0.18-5.55-0.929l-35.752-24.06C51.916,121.144,47.924,110.505,50.608,100.465L50.608,100.465z M102.598,183.116
		h8.34c1.897,0,3.437-1.539,3.437-3.437s-1.539-3.438-3.437-3.438H98.619c-4.098-7.324-7.731-14.894-10.88-22.682l4.688,3.148
		c9.757,6.572,23.29-1.304,21.467-14.855c1.897,0.141,3.542-1.289,3.667-3.187c0.146-1.896-1.288-3.547-3.187-3.67h-3.024
		c-2.489-3.777-2.006-2.92-30.397-22.021c0.678-3.093,1.754-6.084,3.166-8.913h26.819c1.897,0,3.437-1.539,3.437-3.437
		s-1.539-3.438-3.437-3.438H88.596c7.197-8.697,17.902-13.748,29.198-13.748s22.001,5.051,29.197,13.748h-22.306
		c-1.897,0-3.437,1.54-3.437,3.438s1.539,3.437,3.437,3.437h26.833c1.901,3.758,3.152,7.806,3.707,11.975
		c-1.163,2.007-1.806,4.28-1.861,6.628c-6.103,0.783-10.902,5.562-11.764,11.654c-2.021-0.197-4.06,0.031-5.975,0.678h-7.503
		c-1.824,0-3.332,1.43-3.419,3.258c-0.072,1.824,1.288,3.382,3.117,3.561c-1.128,2.312-1.558,4.909-1.292,7.467
		c-5.119,0.788-9.382,4.366-11.009,9.307c-1.627,4.928-0.358,10.348,3.296,14.037l4.115,4.153c-1.325,0.77-1.967,2.346-1.578,3.849
		c0.414,1.484,1.793,2.507,3.332,2.488h4.657c0.856,0.788,1.823,1.417,2.896,1.88c-1.107,1.681-2.218,3.332-3.346,4.995h-22.037
		C105.493,187.86,104.063,185.569,102.598,183.116L102.598,183.116z M200.303,203.739H14.697c-1.896,0-3.437-1.539-3.437-3.438
		c0-1.897,1.54-3.437,3.437-3.437h185.605c1.897,0,3.437,1.539,3.437,3.437C203.739,202.2,202.2,203.739,200.303,203.739
		L200.303,203.739z M200.303,203.739"/>
</g>
</svg>
