<?xml version="1.0" encoding="utf-8"?>
<!-- Generator: Adobe Illustrator 16.0.4, SVG Export Plug-In . SVG Version: 6.00 Build 0)  -->
<!DOCTYPE svg PUBLIC "-//W3C//DTD SVG 1.1//EN" "http://www.w3.org/Graphics/SVG/1.1/DTD/svg11.dtd">
<svg version="1.1" id="Layer_1" xmlns="http://www.w3.org/2000/svg" xmlns:xlink="http://www.w3.org/1999/xlink" x="0px" y="0px"
	 width="229.489px" height="221.989px" viewBox="0 0 229.489 221.989" enable-background="new 0 0 229.489 221.989"
	 xml:space="preserve">
<g>
	<path fill="#ABCF37" d="M122.48,122.097c24.109-40.35,20.277-33.937,20.691-34.621c3.098-5.174-2.92-12.641-10.65-19.402
		c2.506-6.52,4.459-13.25,5.814-20.106c2.477-12.838-5.457-25.402-18.115-28.68L80.299,8.711c-6.979-1.829-14.408-0.559-20.37,3.507
		c-5.963,4.045-9.882,10.489-10.743,17.65l-5.101,42.232l-31.614,53.096c-6.644,11.188,28.964,32.955,33.049,35.408
		c12.652,7.589,29.732,15.682,39.471,15.682c2.829,0.304,5.619-0.949,7.268-3.274l13.731-23.06c0.806-1.378,2.077-2.4,3.598-2.881
		l39.454-11.156c7.643,7.719,18.707,10.995,29.342,8.686c1.092-0.215,2.004-1.004,2.344-2.056c3.01-8.453,3.527-17.563,1.521-26.285
		c-2.396-8.68-7.176-16.54-13.783-22.661c-0.84-0.77-2.043-1.054-3.15-0.717c-10.904,3.506-19.139,12.531-21.66,23.722
		L122.48,122.097z M175.572,117.929c1.311,5.549,1.361,11.291,0.215,16.841c-3.883-4.207-6.695-9.271-8.217-14.802
		c-1.27-5.623-1.197-11.494,0.197-17.1c3.652,4.405,6.34,9.543,7.84,15.061H175.572z M169.738,138.354
		c-8.488-0.752-17.131-5.373-19.193-13.642c-2.039-8.164,3.26-17.151,10.207-22.11c-1.363,6.266-1.324,12.782,0.141,19.028
		C162.542,127.809,165.568,133.519,169.738,138.354L169.738,138.354z M49.045,154.697c-20.105-12.047-30.269-23.129-30.54-26.211
		l29.842-50.158c7.517,10.902,28.034,23.432,31.077,25.262c11.672,6.98,27.016,14.322,36.983,15.429
		c-1.164,2.077-1.127,4.622,0.072,6.678c1.199,2.059,3.402,3.315,5.783,3.332c1.215,0-0.146,0.209,21.123-5.283
		c0.252,2.129,0.844,4.207,1.719,6.141l-37.45,10.582c-3.168,0.967-5.872,3.075-7.572,5.924l-13.605,22.878
		C83.631,170.435,69.095,166.727,49.045,154.697L49.045,154.697z M65.354,49.828C72.87,60.732,93.388,73.265,96.431,75.09
		c11.654,6.964,26.977,14.285,36.928,15.429l-6.117,10.313c-2.832,1.217-17.382-2.51-37.47-14.539
		C69.65,74.227,59.48,63.132,59.25,60.072L65.354,49.828L65.354,49.828z M52.465,71.455l2.721-4.509
		C62.72,77.83,83.22,90.377,86.263,92.183c11.654,6.982,26.977,14.32,36.949,15.453l-2.758,4.596
		c-2.811,1.238-17.329-2.47-37.47-14.531c-20.137-12.068-30.288-23.186-30.52-26.229V71.455z M131.589,46.66
		c-1.127,5.728-2.703,11.348-4.691,16.848c-5.385-4.102-10.973-7.914-16.772-11.407C96.02,43.638,76.399,34.559,67.591,36.763
		c-1.718,0.355-3.204,1.393-4.153,2.866C48.811,64.13,53.861,55.667,52.771,57.51l3.238-26.818
		c0.642-5.227,3.506-9.918,7.856-12.852c4.316-2.901,9.651-3.814,14.664-2.489l39.937,10.578
		C127.63,28.295,133.378,37.373,131.589,46.66L131.589,46.66z M106.619,57.977c19.384,11.636,29.517,22.355,30.449,25.885
		c-3.512,0.824-17.723-3.026-37.112-14.643C80.552,57.583,70.42,46.857,69.489,43.349c3.542-0.826,17.758,3.042,37.13,14.645V57.977
		z M106.619,57.994"/>
	<path fill="#ABCF37" d="M18.505,190.035c-3.795,0-6.875,3.08-6.875,6.875v10.311c0,3.795,3.079,6.875,6.875,6.875h192.479
		c3.795,0,6.873-3.08,6.873-6.875V196.91c0-3.795-3.078-6.875-6.873-6.875H18.505L18.505,190.035z M18.505,196.91h192.479v10.311
		H18.505V196.91z M18.505,207.22"/>
	<path fill="#ABCF37" d="M190.361,104.107c-1.898,0-3.438,1.539-3.438,3.438c0,1.896,1.539,3.437,3.438,3.437
		c0.984,0,1.969,0.072,2.955,0.215c1.879,0.266,3.617-1.041,3.881-2.918c0.271-1.881-1.035-3.617-2.918-3.886
		C192.99,104.199,191.667,104.107,190.361,104.107L190.361,104.107z M190.361,104.107"/>
	<path fill="#ABCF37" d="M209.603,111.966c-0.875-0.881-2.148-1.221-3.346-0.892c-1.199,0.318-2.111,1.268-2.418,2.469
		c-0.303,1.195,0.055,2.47,0.947,3.328c0.936,0.91,1.775,1.896,2.508,2.958c1.096,1.5,3.207,1.859,4.742,0.787
		c1.541-1.076,1.934-3.171,0.898-4.73C211.951,114.475,210.839,113.167,209.603,111.966L209.603,111.966z M209.603,111.966"/>
	<path fill="#ABCF37" d="M214.421,138.479c1.896,0,3.436-1.54,3.436-3.438v-3.438c0-1.896-1.539-3.435-3.436-3.435
		c-1.898,0-3.438,1.54-3.438,3.435v3.438C210.984,136.939,212.523,138.479,214.421,138.479L214.421,138.479z M214.421,138.479"/>
	<path fill="#ABCF37" d="M214.421,155.664c1.896,0,3.436-1.539,3.436-3.437v-3.438c0-1.896-1.539-3.436-3.436-3.436
		c-1.898,0-3.438,1.54-3.438,3.436v3.438C210.984,154.125,212.523,155.664,214.421,155.664L214.421,155.664z M214.421,155.664"/>
	<path fill="#ABCF37" d="M214.421,172.849c1.896,0,3.436-1.538,3.436-3.437v-3.438c0-1.897-1.539-3.437-3.436-3.437
		c-1.898,0-3.438,1.54-3.438,3.437v3.438C210.984,171.311,212.523,172.849,214.421,172.849L214.421,172.849z M214.421,172.849"/>
	<path fill="#ABCF37" d="M204.109,141.916c0-1.898-1.539-3.437-3.438-3.437c-1.896,0-3.436,1.539-3.436,3.437v3.437
		c0,1.897,1.539,3.436,3.436,3.436c1.898,0,3.438-1.539,3.438-3.436V141.916L204.109,141.916z M204.109,141.916"/>
	<path fill="#ABCF37" d="M197.236,162.539c0,1.896,1.539,3.437,3.436,3.437c1.898,0,3.438-1.541,3.438-3.437v-3.438
		c0-1.898-1.539-3.438-3.438-3.438c-1.896,0-3.436,1.539-3.436,3.438V162.539z M197.236,159.101"/>
	<path fill="#ABCF37" d="M200.671,172.849c-1.896,0-3.436,1.539-3.436,3.438v3.438c0,1.896,1.539,3.437,3.436,3.437
		c1.898,0,3.438-1.541,3.438-3.437v-3.438C204.109,174.388,202.57,172.849,200.671,172.849L200.671,172.849z M200.671,172.849"/>
	<path fill="#ABCF37" d="M183.486,155.664c0,1.898,1.541,3.438,3.438,3.438c1.898,0,3.438-1.54,3.438-3.438v-3.437
		c0-1.897-1.539-3.438-3.438-3.438c-1.896,0-3.438,1.541-3.438,3.438V155.664z M183.486,152.227"/>
	<path fill="#ABCF37" d="M186.923,165.975c-1.896,0-3.438,1.54-3.438,3.438v3.437c0,1.898,1.541,3.438,3.438,3.438
		c1.898,0,3.438-1.539,3.438-3.438v-3.437C190.361,167.515,188.822,165.975,186.923,165.975L186.923,165.975z M186.923,165.975"/>
	<path fill="#ABCF37" d="M199.994,122.671c-1.145-1.52-3.295-1.828-4.816-0.701c-1.523,1.146-1.83,3.297-0.684,4.816
		c0.629,0.863,1.164,1.774,1.596,2.758c0.77,1.718,2.791,2.509,4.51,1.757c1.736-0.752,2.543-2.777,1.791-4.516
		C201.744,125.32,200.943,123.943,199.994,122.671L199.994,122.671z M199.994,122.671"/>
</g>
</svg>
