<?xml version="1.0" encoding="utf-8"?>
<!-- Generator: Adobe Illustrator 16.0.4, SVG Export Plug-In . SVG Version: 6.00 Build 0)  -->
<!DOCTYPE svg PUBLIC "-//W3C//DTD SVG 1.1//EN" "http://www.w3.org/Graphics/SVG/1.1/DTD/svg11.dtd">
<svg version="1.1" id="Layer_1" xmlns="http://www.w3.org/2000/svg" xmlns:xlink="http://www.w3.org/1999/xlink" x="0px" y="0px"
	 width="229.489px" height="221.989px" viewBox="0 0 229.489 221.989" enable-background="new 0 0 229.489 221.989"
	 xml:space="preserve">
<g>
	<path fill="#ABCF37" d="M212.701,54.179c6.474-10.256,5.465-22.876,4.296-29.456c-0.318-1.915-1.437-3.605-3.077-4.646
		c-1.641-1.041-3.645-1.334-5.516-0.807c-2.777,0.774-5.494,1.759-8.125,2.944c-2.2-4.393-4.98-8.469-8.266-12.123
		c-1.334-1.38-3.174-2.157-5.093-2.155c-1.922,0.004-3.758,0.789-5.088,2.173c-3.278,3.648-6.055,7.72-8.249,12.109
		c-2.633-1.188-5.349-2.171-8.129-2.949c-1.865-0.527-3.866-0.237-5.504,0.796c-1.639,1.035-2.762,2.718-3.089,4.627
		c-1.175,6.61-2.182,19.247,4.28,29.471c1.579,2.475,3.508,4.711,5.723,6.64c-4.139,3.983-7.227,8.93-8.99,14.399
		c-0.016,0.043-0.026,0.092-0.044,0.136c-1.216,3.741-1.837,7.648-1.841,11.584c0,17.528,8.385,48.345,15.947,72.602
		c-2.693,0.306-5.368,0.75-8.016,1.333c-5.228,1.184-10.579,1.735-15.941,1.647c-5.348,0.087-10.689-0.464-15.906-1.647
		c-0.832-0.172-1.68-0.344-2.557-0.512c7.64-24.49,16.162-55.753,16.162-73.423c-0.007-3.901-0.617-7.781-1.813-11.493
		c-0.031-0.087-0.048-0.176-0.086-0.262c-1.758-5.453-4.834-10.386-8.955-14.364c2.206-1.923,4.126-4.154,5.697-6.624
		c6.472-10.256,5.465-22.876,4.296-29.456c-0.318-1.915-1.438-3.605-3.077-4.646c-1.641-1.041-3.646-1.334-5.515-0.807
		c-2.78,0.774-5.494,1.759-8.125,2.944c-2.201-4.393-4.98-8.469-8.268-12.123c-1.335-1.38-3.172-2.157-5.094-2.155
		c-1.92,0.004-3.755,0.789-5.086,2.173c-3.28,3.648-6.054,7.72-8.25,12.109c-2.631-1.188-5.348-2.171-8.127-2.949
		c-1.865-0.527-3.866-0.237-5.505,0.796c-1.641,1.035-2.763,2.718-3.088,4.627c-1.177,6.61-2.185,19.247,4.277,29.471
		c1.58,2.475,3.507,4.711,5.723,6.64c-4.139,3.983-7.225,8.93-8.987,14.399c0,0.043-0.027,0.092-0.044,0.136
		c-1.217,3.741-1.84,7.648-1.844,11.584c0,17.581,8.538,48.886,16.193,73.423c-0.873,0.168-1.727,0.337-2.558,0.512
		c-5.215,1.184-10.556,1.737-15.903,1.647c-5.348,0.089-10.687-0.464-15.904-1.647c-2.66-0.581-5.349-1.027-8.056-1.337
		c7.548-24.311,15.917-55.185,15.917-72.598c-0.005-3.901-0.615-7.781-1.811-11.493c-0.031-0.087-0.049-0.176-0.086-0.262
		c-1.758-5.453-4.836-10.386-8.958-14.364c2.207-1.923,4.126-4.154,5.7-6.624c6.472-10.256,5.464-22.876,4.296-29.456
		c-0.318-1.915-1.439-3.605-3.08-4.646c-1.639-1.041-3.644-1.334-5.513-0.807c-2.779,0.774-5.496,1.759-8.127,2.944
		c-2.194-4.39-4.968-8.469-8.249-12.123c-1.334-1.385-3.178-2.167-5.102-2.163c-1.924,0.004-3.766,0.791-5.096,2.181
		c-3.278,3.648-6.054,7.72-8.249,12.109c-2.631-1.188-5.35-2.171-8.129-2.949c-1.865-0.527-3.866-0.237-5.505,0.796
		c-1.639,1.035-2.761,2.718-3.088,4.627c-1.175,6.61-2.182,19.247,4.28,29.471c1.579,2.475,3.507,4.711,5.723,6.64
		c-4.14,3.983-7.228,8.93-8.989,14.399c-0.018,0.043-0.027,0.092-0.044,0.136c-1.217,3.741-1.838,7.648-1.843,11.584
		c0,17.872,8.728,49.648,16.533,74.495c-2.271,0.432-4.566,0.729-6.874,0.888c-5.413,0.381-9.619,4.862-9.659,10.286v31.158
		c0,5.693,4.618,10.311,10.312,10.311h185.604c5.694,0,10.312-4.617,10.312-10.311v-31.172c-0.042-5.419-4.248-9.896-9.654-10.272
		c-2.3-0.159-4.584-0.456-6.848-0.888c7.789-24.908,16.498-56.712,16.498-74.495c-0.005-3.901-0.615-7.781-1.811-11.493
		c-0.032-0.087-0.049-0.176-0.086-0.262c-1.758-5.453-4.836-10.386-8.958-14.364C209.208,58.88,211.129,56.651,212.701,54.179
		L212.701,54.179z M210.227,25.896c0.804,4.533,2.094,16.009-3.348,24.631c-1.479,2.295-3.332,4.33-5.48,6.017
		c-0.841-0.498-1.718-0.959-2.591-1.374c3.321-5.373,5.15-11.532,5.299-17.847c-0.014-2.948-0.45-5.879-1.292-8.707
		c2.4-1.101,4.882-2.011,7.425-2.721H210.227z M186.922,14.709c3.857,4.29,10.312,12.933,10.312,22.619
		c-0.203,5.619-1.99,11.065-5.156,15.71c-3.403-0.69-6.908-0.69-10.311,0c-3.168-4.646-4.956-10.095-5.157-15.715
		C176.611,27.637,183.087,18.994,186.922,14.709L186.922,14.709z M163.596,25.89c2.547,0.72,5.035,1.639,7.44,2.749
		c-0.841,2.819-1.277,5.744-1.3,8.685c0.146,6.312,1.972,12.472,5.286,17.842c-0.892,0.416-1.758,0.875-2.602,1.376
		c-2.154-1.692-4.013-3.729-5.498-6.033C161.513,41.905,162.801,30.429,163.596,25.89L163.596,25.89z M175.834,148.754h4.215
		c1.896,0,3.437-1.538,3.437-3.437c0-1.897-1.54-3.436-3.437-3.436h-6.234c-0.984-3.414-1.942-6.875-2.868-10.313h9.103
		c1.896,0,3.437-1.538,3.437-3.437s-1.54-3.436-3.437-3.436h-10.884c-0.875-3.5-1.692-6.948-2.433-10.313h13.316
		c1.896,0,3.437-1.538,3.437-3.437s-1.54-3.435-3.437-3.435h-14.745c-0.688-3.631-1.255-7.083-1.67-10.314h16.415
		c1.896,0,3.437-1.538,3.437-3.436c0-1.899-1.54-3.436-3.437-3.436h-17.083c-0.064-1.188-0.103-2.325-0.103-3.404
		c0.007-2.325,0.275-4.642,0.798-6.909h16.388c1.896,0,3.437-1.539,3.437-3.437c0-1.898-1.54-3.436-3.437-3.436h-13.921
		c3.547-8.34,11.733-13.751,20.794-13.751c9.062,0,17.246,5.412,20.796,13.751h-13.922c-1.898,0-3.436,1.538-3.436,3.436
		c0,1.898,1.537,3.437,3.436,3.437h16.385c0.524,2.266,0.793,4.584,0.801,6.909c0,1.075-0.037,2.216-0.103,3.404h-17.083
		c-1.898,0-3.436,1.537-3.436,3.436c0,1.898,1.537,3.436,3.436,3.436h16.405c-0.411,3.231-0.967,6.669-1.665,10.314h-14.74
		c-1.898,0-3.436,1.537-3.436,3.435s1.537,3.437,3.436,3.437h13.309c-0.738,3.363-1.552,6.81-2.429,10.313h-10.88
		c-1.898,0-3.436,1.537-3.436,3.436s1.537,3.437,3.436,3.437h9.103c-0.921,3.438-1.877,6.875-2.857,10.313h-6.245
		c-1.898,0-3.436,1.538-3.436,3.436c0,1.898,1.537,3.437,3.436,3.437h4.237c-1.157,3.896-2.326,7.687-3.47,11.343
		c-4.409-0.74-8.875-1.086-13.346-1.029c-0.785,0-1.492,0-2.211,0.029C177.962,155.763,176.896,152.306,175.834,148.754
		L175.834,148.754z M138.061,25.896c0.804,4.533,2.094,16.009-3.348,24.631c-1.479,2.295-3.329,4.33-5.48,6.017
		c-0.841-0.498-1.718-0.959-2.59-1.374c3.314-5.373,5.14-11.534,5.286-17.847c-0.017-2.948-0.451-5.879-1.292-8.707
		C133.035,27.516,135.519,26.606,138.061,25.896L138.061,25.896z M114.744,14.709c3.856,4.29,10.311,12.933,10.311,22.619
		c-0.201,5.619-1.988,11.065-5.153,15.71c-3.403-0.69-6.911-0.69-10.313,0c-3.166-4.646-4.953-10.095-5.154-15.715
		C104.433,27.637,110.909,18.994,114.744,14.709L114.744,14.709z M91.416,25.89c2.55,0.72,5.037,1.639,7.441,2.749
		c-0.84,2.819-1.277,5.744-1.299,8.685c0.146,6.312,1.972,12.472,5.287,17.842c-0.892,0.416-1.759,0.875-2.602,1.376
		c-2.157-1.692-4.016-3.729-5.5-6.033C89.333,41.905,90.623,30.429,91.416,25.89L91.416,25.89z M103.653,148.754h4.216
		c1.899,0,3.439-1.538,3.439-3.437c0-1.897-1.54-3.436-3.439-3.436h-6.23c-0.98-3.418-1.943-6.875-2.86-10.313h9.09
		c1.899,0,3.439-1.538,3.439-3.437s-1.54-3.436-3.439-3.436H96.999c-0.879-3.5-1.695-6.95-2.434-10.313h13.304
		c1.899,0,3.439-1.538,3.439-3.437s-1.54-3.435-3.439-3.435H93.134c-0.687-3.638-1.257-7.085-1.674-10.314h16.409
		c1.899,0,3.439-1.538,3.439-3.436c0-1.899-1.54-3.436-3.439-3.436H90.787c-0.065-1.188-0.103-2.329-0.103-3.404
		c0.008-2.325,0.274-4.642,0.797-6.909h16.388c1.899,0,3.439-1.539,3.439-3.437c0-1.898-1.54-3.436-3.439-3.436H93.95
		c3.771-8.15,11.819-13.473,20.794-13.75c8.975,0.277,17.024,5.6,20.794,13.75h-13.919c-1.898,0-3.439,1.538-3.439,3.436
		c0,1.898,1.541,3.437,3.439,3.437h16.384c0.524,2.266,0.793,4.584,0.802,6.909c0,1.079-0.038,2.216-0.104,3.404h-17.082
		c-1.898,0-3.439,1.537-3.439,3.436c0,1.898,1.541,3.436,3.439,3.436h16.411c-0.411,3.231-0.969,6.681-1.663,10.314h-14.748
		c-1.898,0-3.439,1.537-3.439,3.435s1.541,3.437,3.439,3.437h13.32c-0.733,3.365-1.55,6.813-2.429,10.313h-10.892
		c-1.898,0-3.439,1.537-3.439,3.436s1.541,3.437,3.439,3.437h9.117c-0.922,3.438-1.876,6.896-2.859,10.313h-6.258
		c-1.898,0-3.439,1.538-3.439,3.436c0,1.898,1.541,3.437,3.439,3.437h4.248c-1.091,3.648-2.18,7.198-3.252,10.621
		c-2.197-0.188-4.736-0.308-7.839-0.308c-3.105,0-5.669,0.119-7.876,0.312C105.833,155.973,104.739,152.403,103.653,148.754
		L103.653,148.754z M48.316,159.068c-4.475-0.06-8.943,0.286-13.355,1.029c-1.16-3.656-2.328-7.447-3.494-11.343h4.225
		c1.898,0,3.436-1.538,3.436-3.437c0-1.897-1.538-3.436-3.436-3.436h-6.239c-0.982-3.423-1.943-6.875-2.864-10.313h9.103
		c1.898,0,3.436-1.538,3.436-3.437s-1.538-3.436-3.436-3.436H24.805c-0.877-3.503-1.695-6.95-2.434-10.313h13.319
		c1.898,0,3.436-1.538,3.436-3.437s-1.538-3.435-3.436-3.435h-14.75c-0.686-3.638-1.242-7.074-1.664-10.314h16.414
		c1.898,0,3.436-1.538,3.436-3.436c0-1.899-1.538-3.436-3.436-3.436H18.608c-0.065-1.188-0.103-2.329-0.103-3.404
		c0.006-2.325,0.274-4.642,0.797-6.909h16.389c1.898,0,3.436-1.539,3.436-3.437c0-1.898-1.538-3.436-3.436-3.436H21.77
		c3.77-8.15,11.819-13.473,20.796-13.75c8.974,0.277,17.023,5.6,20.793,13.75H49.438c-1.896,0-3.437,1.538-3.437,3.436
		c0,1.898,1.54,3.437,3.437,3.437h16.386c0.523,2.266,0.792,4.584,0.8,6.909c0,1.075-0.038,2.216-0.103,3.404H49.438
		c-1.896,0-3.437,1.537-3.437,3.436c0,1.898,1.54,3.436,3.437,3.436h16.409c-0.415,3.229-0.979,6.681-1.674,10.314H49.438
		c-1.896,0-3.437,1.537-3.437,3.435s1.54,3.437,3.437,3.437h13.309c-0.738,3.365-1.557,6.813-2.434,10.313H49.438
		c-1.896,0-3.437,1.537-3.437,3.436s1.54,3.437,3.437,3.437h9.099c-0.917,3.438-1.875,6.896-2.855,10.313h-6.243
		c-1.896,0-3.437,1.538-3.437,3.436c0,1.898,1.54,3.437,3.437,3.437h4.229c-1.059,3.547-2.119,7.009-3.159,10.343
		c-0.727-0.012-1.412-0.029-2.203-0.029H48.316z M65.883,25.896c0.804,4.533,2.091,16.009-3.349,24.631
		c-1.479,2.295-3.331,4.33-5.479,6.017c-0.841-0.498-1.718-0.959-2.591-1.374c3.315-5.373,5.14-11.534,5.287-17.847
		c-0.017-2.948-0.453-5.879-1.292-8.707C60.857,27.516,63.338,26.606,65.883,25.896L65.883,25.896z M42.566,14.709
		c3.855,4.29,10.311,12.933,10.311,22.619c-0.204,5.619-1.991,11.065-5.156,15.71c-1.699-0.333-3.424-0.508-5.154-0.522
		c-1.733,0.013-3.458,0.188-5.157,0.52c-3.166-4.646-4.953-10.092-5.157-15.712C32.252,27.637,38.729,18.994,42.566,14.709
		L42.566,14.709z M19.238,25.89c2.549,0.72,5.037,1.639,7.441,2.749c-0.842,2.819-1.278,5.744-1.299,8.685
		c0.145,6.312,1.97,12.472,5.284,17.842c-0.89,0.416-1.758,0.875-2.602,1.376c-2.154-1.692-4.013-3.729-5.498-6.033
		C17.155,41.905,18.443,30.429,19.238,25.89L19.238,25.89z M207.545,207.185H21.942c-1.899,0-3.437-1.537-3.437-3.436v-20.68
		c4.677-0.123,9.331-0.697,13.896-1.722c5.215-1.187,10.554-1.744,15.903-1.659c5.36-0.088,10.712,0.464,15.941,1.647
		c5.672,1.276,11.479,1.879,17.295,1.789c5.815,0.09,11.621-0.513,17.294-1.789c5.23-1.184,10.582-1.735,15.941-1.647
		c5.35-0.088,10.689,0.464,15.904,1.647c5.677,1.276,11.483,1.879,17.299,1.789c5.83,0.09,11.646-0.513,17.334-1.789
		c5.216-1.184,10.555-1.737,15.904-1.647c5.347-0.088,10.686,0.464,15.903,1.647c4.553,1.023,9.195,1.599,13.86,1.719v20.694
		C210.982,205.648,209.445,207.185,207.545,207.185L207.545,207.185z M210.982,172.578v3.612c-4.195-0.126-8.37-0.655-12.465-1.584
		c-5.677-1.28-11.484-1.88-17.299-1.792c-5.817-0.088-11.622,0.512-17.297,1.792c-5.228,1.182-10.579,1.735-15.941,1.647
		c-5.348,0.088-10.689-0.466-15.906-1.647c-5.675-1.28-11.479-1.88-17.297-1.792c-5.827-0.09-11.645,0.512-17.332,1.792
		c-5.215,1.183-10.556,1.735-15.903,1.647c-5.348,0.09-10.687-0.465-15.904-1.647c-5.687-1.28-11.504-1.88-17.332-1.792
		c-5.815-0.088-11.622,0.512-17.297,1.792c-4.107,0.929-8.294,1.458-12.503,1.584v-3.599c-0.002-1.839,1.445-3.353,3.281-3.437
		c3.572-0.263,7.12-0.79,10.615-1.575c5.215-1.181,10.556-1.731,15.903-1.64c5.36-0.089,10.712,0.466,15.941,1.646
		c5.672,1.28,11.479,1.88,17.295,1.792c5.815,0.088,11.621-0.512,17.294-1.792c5.23-1.182,10.582-1.735,15.941-1.646
		c5.35-0.089,10.689,0.466,15.904,1.646c5.677,1.28,11.483,1.88,17.299,1.792c5.83,0.088,11.646-0.512,17.334-1.792
		c5.216-1.182,10.555-1.737,15.904-1.646c5.347-0.089,10.686,0.466,15.903,1.646c3.486,0.787,7.028,1.312,10.592,1.575
		C209.539,169.25,210.974,170.752,210.982,172.578L210.982,172.578z M210.982,172.578"/>
	<path fill="#ABCF37" d="M49.438,186.564h-6.872c-1.899,0-3.439,1.537-3.439,3.436s1.54,3.439,3.439,3.439h6.872
		c1.898,0,3.438-1.541,3.438-3.439S51.336,186.564,49.438,186.564L49.438,186.564z M49.438,186.564"/>
	<path fill="#ABCF37" d="M76.937,193.439h-6.875c-1.898,0-3.438,1.537-3.438,3.436s1.54,3.436,3.438,3.436h6.875
		c1.896,0,3.436-1.537,3.436-3.436S78.833,193.439,76.937,193.439L76.937,193.439z M76.937,193.439"/>
	<path fill="#ABCF37" d="M118.179,186.564h-6.871c-1.899,0-3.439,1.537-3.439,3.436s1.54,3.439,3.439,3.439h6.871
		c1.899,0,3.439-1.541,3.439-3.439S120.079,186.564,118.179,186.564L118.179,186.564z M118.179,186.564"/>
	<path fill="#ABCF37" d="M145.679,193.439h-6.875c-1.898,0-3.439,1.537-3.439,3.436s1.541,3.436,3.439,3.436h6.875
		c1.896,0,3.436-1.537,3.436-3.436S147.575,193.439,145.679,193.439L145.679,193.439z M145.679,193.439"/>
	<path fill="#ABCF37" d="M186.922,186.564h-6.873c-1.898,0-3.438,1.537-3.438,3.436s1.54,3.439,3.438,3.439h6.873
		c1.898,0,3.438-1.541,3.438-3.439S188.821,186.564,186.922,186.564L186.922,186.564z M186.922,186.564"/>
</g>
</svg>
