<?xml version="1.0" encoding="utf-8"?>
<!-- Generator: Adobe Illustrator 16.0.4, SVG Export Plug-In . SVG Version: 6.00 Build 0)  -->
<!DOCTYPE svg PUBLIC "-//W3C//DTD SVG 1.1//EN" "http://www.w3.org/Graphics/SVG/1.1/DTD/svg11.dtd">
<svg version="1.1" id="Layer_1" xmlns="http://www.w3.org/2000/svg" xmlns:xlink="http://www.w3.org/1999/xlink" x="0px" y="0px"
	 width="220px" height="222px" viewBox="0 0 220 222" enable-background="new 0 0 220 222" xml:space="preserve">
<g>
	<path fill="#41AF49" d="M17.197,214.107h17.185c2.92-0.018,5.692-1.25,7.625-3.437h86.212c5.027,0,9.986-1.381,14.284-4.01
		l64.401-39.204c5.605-3.399,7.773-10.47,5.015-16.415c-2.736-5.943-9.522-8.877-15.732-6.8l-3.904,1.307
		c-6.319-11.206-19.581-16.503-31.882-12.726c-7.804-7.843-19.547-10.226-29.785-6.037V111h13.747
		c11.385-0.018,20.604-9.238,20.622-20.621c0-3.795-3.08-6.874-6.875-6.874h-13.747c-5.081,0-9.971,1.88-13.747,5.297V76.631h10.311
		c11.385-0.018,20.604-9.238,20.621-20.621c0-3.795-3.079-6.873-6.874-6.873h-10.311c-5.081,0-9.971,1.879-13.747,5.296V42.262
		h6.873c11.385-0.018,20.604-9.238,20.621-20.621c0-3.795-3.078-6.874-6.873-6.874c-7.768,0-13.909-0.733-20.621,5.297V11.33
		c0-1.897-1.54-3.438-3.438-3.438s-3.438,1.54-3.438,3.438v8.733c-6.873-6.189-13.709-5.297-20.621-5.297
		c-3.795,0-6.874,3.079-6.874,6.874c0.018,11.383,9.239,20.604,20.622,20.621h6.873v12.171c-3.774-3.417-8.664-5.296-13.747-5.296
		H99.683c-3.795,0-6.874,3.078-6.874,6.873c0.018,11.383,9.239,20.604,20.621,20.621h10.311v12.171
		c-3.774-3.417-8.664-5.297-13.747-5.297H96.247c-3.795,0-6.874,3.079-6.874,6.874c0.018,11.383,9.239,20.604,20.622,20.621h13.747
		v12.922c-10.938-8.789-26.743-7.907-36.642,2.027c-8.375-2.526-17.453-0.931-24.47,4.292c-5.979-1.896-12.3-2.611-18.545-2.057
		c-1.468-4.114-5.334-6.855-9.702-6.873H17.197c-5.692,0-10.311,4.618-10.311,10.311v72.175
		C6.887,209.489,11.505,214.107,17.197,214.107L17.197,214.107z M144.363,90.379h13.747c0,7.588-6.157,13.748-13.747,13.748h-13.747
		C130.616,96.537,136.775,90.379,144.363,90.379L144.363,90.379z M144.363,56.01h10.311c0,7.588-6.157,13.748-13.747,13.748h-10.311
		C130.616,62.168,136.775,56.01,144.363,56.01L144.363,56.01z M144.363,21.641h6.874c0,7.588-6.158,13.748-13.748,13.748h-6.873
		C130.616,27.799,136.775,21.641,144.363,21.641L144.363,21.641z M103.12,21.641h6.874c7.59,0,13.747,6.158,13.747,13.748h-6.873
		C109.28,35.389,103.12,29.229,103.12,21.641L103.12,21.641z M99.683,56.01h10.311c7.59,0,13.747,6.158,13.747,13.748h-10.311
		C105.843,69.758,99.683,63.598,99.683,56.01L99.683,56.01z M96.247,90.379h13.748c7.59,0,13.747,6.158,13.747,13.748h-13.747
		C102.406,104.127,96.247,97.967,96.247,90.379L96.247,90.379z M86.811,133.125c2.815,1.146,3.099,1.934,4.639,1.934
		c1.398,0.018,2.667-0.844,3.184-2.13c0.523-1.307,0.183-2.792-0.839-3.741c8.718-6.91,21.355-5.621,28.5,2.915
		c-0.197,0.166-0.412,0.325-0.608,0.504c-1.325,1.324-1.325,3.493-0.021,4.817c1.324,1.343,3.475,1.374,4.836,0.087
		c4.762-4.638,11.49-6.696,18.041-5.531c6.555,1.164,12.154,5.427,15.017,11.437c0.542,1.11,1.613,1.849,2.833,1.936
		c1.232,0.109,2.414-0.463,3.112-1.467c0.683-1.021,0.788-2.328,0.269-3.438c-0.269-0.553-0.591-1.077-0.893-1.613
		c8.07-1.466,16.249,2.058,20.727,8.932c-58.982,19.655-53.344,18.226-58.303,18.226c4.297-11.924-6.695-24.059-19.261-24.059H90.05
		c-10.971,0-16.822-5.925-20.225-8.111C75.144,131.19,81.299,130.943,86.811,133.125L86.811,133.125z M68.321,141.181
		c6.176,4.923,13.839,7.607,21.729,7.626h17.993c9.13,0,17.022,9.879,11.584,17.185h-20.91c-7.805,0.093-15.375,2.703-21.57,7.464
		c-1.575,1.055-2.003,3.185-0.931,4.762c1.056,1.578,3.186,2.003,4.761,0.931c5.064-3.974,11.295-6.191,17.74-6.282
		c33.421,0,32.51,0.303,36.014-0.894l63.583-21.214c2.902-0.929,6.035,0.432,7.306,3.187c1.286,2.759,0.306,6.034-2.292,7.625
		l-64.391,39.221c-3.237,1.967-6.94,3.007-10.717,3.007H44.693v-68.738C52.497,135.059,59.926,134.451,68.321,141.181
		L68.321,141.181z M13.76,131.622c0-1.897,1.54-3.438,3.437-3.438h17.185c1.897,0,3.437,1.54,3.437,3.438v72.175
		c0,1.897-1.54,3.438-3.437,3.438H17.197c-1.897,0-3.437-1.54-3.437-3.438V131.622z M13.76,131.622"/>
	<path fill="#41AF49" d="M136.325,152.046c1.793,0.627,3.758-0.283,4.404-2.076c0.234-0.626,0.734-1.128,1.36-1.36
		c1.22-0.394,2.112-1.398,2.347-2.631c0.23-1.238-0.215-2.507-1.201-3.312c-0.967-0.789-2.291-1.004-3.473-0.519
		c-2.544,0.931-4.564,2.938-5.496,5.495C133.622,149.436,134.554,151.399,136.325,152.046L136.325,152.046z M136.325,152.046"/>
</g>
</svg>
