<?xml version="1.0" encoding="utf-8"?>
<!-- Generator: Adobe Illustrator 16.0.4, SVG Export Plug-In . SVG Version: 6.00 Build 0)  -->
<!DOCTYPE svg PUBLIC "-//W3C//DTD SVG 1.1//EN" "http://www.w3.org/Graphics/SVG/1.1/DTD/svg11.dtd">
<svg version="1.1" id="Layer_1" xmlns="http://www.w3.org/2000/svg" xmlns:xlink="http://www.w3.org/1999/xlink" x="0px" y="0px"
	 width="215px" height="215px" viewBox="0 0 215 215" enable-background="new 0 0 215 215" xml:space="preserve">
<g>
	<path fill="#41AF49" d="M11.26,210.613h192.478c3.797,0,6.875-3.08,6.875-6.874v-51.378c0-1.934-0.805-3.795-2.236-5.082
		c-1.434-1.307-3.367-1.953-5.283-1.756c-13.047,1.398-15.215,9.183-26.852,10.004v-27.676
		c11.832-1.719,20.605-11.833,20.623-23.789v-8.255c0-5.025,1.916-9.862,5.391-13.514c1.465-1.595,1.859-3.904,1.002-5.89
		c-0.861-1.989-2.83-3.275-4.994-3.275h-4.836V54.225c0-14.216-9.258-25.779-20.623-25.779s-20.623,11.563-20.623,25.779v18.904
		h-4.832c-2.182,0-4.154,1.286-5.012,3.275c-0.861,2.003-0.467,4.313,1.02,5.909c6.283,6.642,5.389,13.28,5.389,21.75
		c0.018,11.956,8.789,22.07,20.621,23.789v27.428c-10.811-1.72-12.781-9.971-28.66-9.971c-16.539,0-17.775,8.754-29.807,10.114
		l0.037-51.631c11.832-1.719,20.604-11.833,20.623-23.789v-8.255c0-5.026,1.914-9.861,5.391-13.514
		c1.465-1.595,1.859-3.904,1.002-5.889c-0.861-1.989-2.832-3.276-4.994-3.276h-4.836V30.165c0-14.217-9.258-25.778-20.624-25.778
		c-11.365,0-20.622,11.562-20.622,25.778v18.904h-4.834c-2.182,0-4.153,1.287-5.01,3.276c-0.861,2.003-0.468,4.312,1.018,5.907
		c6.284,6.642,5.389,13.281,5.389,21.751c0.018,11.956,8.79,22.07,20.623,23.789l-0.036,51.631
		c-11.889-1.343-13.408-10.114-29.771-10.114c-16.04,0-17.795,8.251-28.625,9.971v-27.428c11.833-1.719,20.605-11.833,20.623-23.789
		v-8.255c0-5.025,1.915-9.862,5.391-13.514c1.466-1.595,1.859-3.904,1.003-5.89c-0.862-1.989-2.831-3.275-4.995-3.275h-4.836V54.225
		c0-14.216-9.257-25.779-20.622-25.779S21.572,40.009,21.572,54.225v18.904h-4.833c-2.182,0-4.153,1.286-5.011,3.275
		c-0.861,2.003-0.468,4.313,1.019,5.909c6.283,6.642,5.389,13.28,5.389,21.75c0.018,11.956,8.789,22.07,20.622,23.789v27.676
		c-11.728-0.801-13.675-8.593-26.832-10.004c-1.934-0.197-3.849,0.449-5.301,1.756c-1.431,1.287-2.238,3.148-2.238,5.082v51.378
		C4.386,207.533,7.465,210.613,11.26,210.613L11.26,210.613z M189.99,104.062c-0.018,8.161-5.746,15.196-13.748,16.846V93.75
		c0-7.589,6.16-13.748,13.748-13.748h5.23C189.221,88.079,189.99,95.059,189.99,104.062L189.99,104.062z M172.805,35.32
		c7.59,0,13.748,8.488,13.748,18.905v19.206c-5.623,0.967-10.596,4.189-13.748,8.938c-3.152-4.748-8.125-7.971-13.748-8.938V54.225
		C159.057,43.808,165.217,35.32,172.805,35.32L172.805,35.32z M155.619,104.062c0-9.109,0.787-15.948-5.227-24.06h5.227
		c7.59,0,13.748,6.158,13.748,13.748v27.158C161.365,119.259,155.637,112.224,155.619,104.062L155.619,104.062z M124.686,80.003
		c-0.018,8.161-5.746,15.196-13.748,16.846V69.691c0-7.59,6.16-13.749,13.748-13.749h5.229
		C123.916,64.019,124.686,70.998,124.686,80.003L124.686,80.003z M107.5,11.261c7.59,0,13.749,8.487,13.749,18.904v19.206
		c-5.623,0.967-10.596,4.188-13.749,8.938c-3.152-4.749-8.125-7.971-13.748-8.938V30.165C93.751,19.748,99.912,11.261,107.5,11.261
		L107.5,11.261z M90.314,80.003c0-9.109,0.788-15.948-5.228-24.06h5.228c7.591,0,13.749,6.159,13.749,13.749v27.157
		C96.061,95.199,90.333,88.164,90.314,80.003L90.314,80.003z M59.38,104.062c-0.019,8.161-5.747,15.196-13.749,16.846V93.75
		c0-7.589,6.161-13.748,13.749-13.748h5.229C58.611,88.079,59.38,95.059,59.38,104.062L59.38,104.062z M42.195,35.32
		c7.59,0,13.748,8.488,13.748,18.905v19.206c-5.623,0.967-10.596,4.189-13.748,8.938c-3.153-4.748-8.125-7.971-13.749-8.938V54.225
		C28.446,43.808,34.607,35.32,42.195,35.32L42.195,35.32z M25.009,104.062c0-9.109,0.787-15.948-5.229-24.06h5.229
		c7.59,0,13.748,6.158,13.748,13.748v27.158C30.755,119.259,25.027,112.224,25.009,104.062L25.009,104.062z M42.195,162.494
		c0.104-0.019,0.196-0.036,0.302-0.057c6.073-0.179,11.963-2.13,16.939-5.617c4.294-3.134,9.504-4.761,14.82-4.638
		c14.895,0,15.756,10.312,33.208,10.312c17.456,0,18.313-10.312,33.243-10.312c14.592,0,15.467,9.664,31.814,10.255
		c0.086,0.021,0.191,0.038,0.283,0.057c18.584,0,18.492-8.734,30.934-10.171c0,0.021,0,0.038,0,0.038v51.378H11.26l-0.092-51.378
		C23.613,153.704,23.63,162.494,42.195,162.494L42.195,162.494z M42.195,162.494"/>
	<path fill="#41AF49" d="M38.757,52.506h3.438c1.897,0,3.437-1.539,3.437-3.437s-1.539-3.437-3.437-3.437h-3.438
		c-1.897,0-3.437,1.539-3.437,3.437S36.86,52.506,38.757,52.506L38.757,52.506z M38.757,52.506"/>
	<path fill="#41AF49" d="M42.195,59.38c-1.897,0-3.438,1.54-3.438,3.438s1.54,3.438,3.438,3.438h3.437
		c1.897,0,3.438-1.54,3.438-3.438s-1.54-3.438-3.438-3.438H42.195z M42.195,59.38"/>
	<path fill="#41AF49" d="M169.367,52.506h3.438c1.898,0,3.438-1.539,3.438-3.437s-1.539-3.437-3.438-3.437h-3.438
		c-1.896,0-3.436,1.539-3.436,3.437S167.471,52.506,169.367,52.506L169.367,52.506z M169.367,52.506"/>
	<path fill="#41AF49" d="M172.805,59.38c-1.896,0-3.438,1.54-3.438,3.438s1.541,3.438,3.438,3.438h3.438
		c1.898,0,3.438-1.54,3.438-3.438s-1.539-3.438-3.438-3.438H172.805z M172.805,59.38"/>
	<path fill="#41AF49" d="M107.5,28.446h3.438c1.896,0,3.438-1.54,3.438-3.437c0-1.898-1.541-3.437-3.438-3.437H107.5
		c-1.897,0-3.437,1.539-3.437,3.437C104.063,26.906,105.602,28.446,107.5,28.446L107.5,28.446z M107.5,28.446"/>
	<path fill="#41AF49" d="M104.063,42.194h3.437c1.897,0,3.438-1.539,3.438-3.436c0-1.898-1.541-3.438-3.438-3.438h-3.437
		c-1.897,0-3.438,1.54-3.438,3.438C100.625,40.655,102.166,42.194,104.063,42.194L104.063,42.194z M104.063,42.194"/>
	<path fill="#41AF49" d="M67.185,170.243c2.31-0.604,4.692-0.911,7.071-0.875c1.719-0.019,3.438,0.123,5.12,0.43
		c1.217,0.217,2.45-0.215,3.24-1.164c0.806-0.929,1.038-2.222,0.626-3.367c-0.411-1.159-1.416-2.021-2.611-2.235
		c-2.112-0.376-4.244-0.556-6.375-0.537c-3.008-0.036-6.013,0.338-8.934,1.127c-1.827,0.518-2.899,2.415-2.38,4.243
		C63.464,169.688,65.362,170.767,67.185,170.243L67.185,170.243z M67.185,170.243"/>
	<path fill="#41AF49" d="M115.305,180.555c2.309-0.604,4.693-0.911,7.072-0.875c1.717-0.019,3.436,0.123,5.119,0.43
		c1.217,0.217,2.449-0.215,3.24-1.164c0.805-0.929,1.039-2.222,0.627-3.368c-0.412-1.159-1.418-2.021-2.611-2.235
		c-2.113-0.376-4.246-0.555-6.375-0.537c-3.008-0.035-6.014,0.338-8.934,1.128c-1.828,0.518-2.9,2.415-2.381,4.243
		C111.584,179.999,113.48,181.078,115.305,180.555L115.305,180.555z M115.305,180.555"/>
	<path fill="#41AF49" d="M153.113,177.117c2.309-0.604,4.693-0.911,7.07-0.875c1.719-0.018,3.438,0.123,5.121,0.43
		c1.217,0.217,2.449-0.215,3.24-1.164c0.805-0.929,1.037-2.222,0.627-3.367c-0.412-1.159-1.418-2.021-2.611-2.235
		c-2.113-0.376-4.246-0.556-6.377-0.537c-3.006-0.036-6.012,0.338-8.932,1.128c-1.182,0.338-2.096,1.269-2.402,2.47
		c-0.301,1.182,0.057,2.433,0.936,3.294C150.66,177.117,151.932,177.443,153.113,177.117L153.113,177.117z M153.113,177.117"/>
	<path fill="#41AF49" d="M29.377,180.555c2.309-0.604,4.692-0.911,7.07-0.875c1.719-0.019,3.438,0.123,5.12,0.43
		c1.878,0.34,3.67-0.897,4.01-2.757c0.338-1.88-0.895-3.673-2.755-4.011c-2.111-0.376-4.244-0.555-6.375-0.537
		c-3.007-0.035-6.013,0.338-8.933,1.128c-1.182,0.338-2.095,1.269-2.401,2.47c-0.302,1.183,0.057,2.434,0.936,3.295
		C26.924,180.555,28.196,180.881,29.377,180.555L29.377,180.555z M29.377,180.555"/>
	<path fill="#41AF49" d="M142.803,194.303c2.309-0.604,4.691-0.911,7.07-0.875c1.719-0.018,3.438,0.123,5.119,0.43
		c1.219,0.217,2.451-0.215,3.24-1.164c0.807-0.928,1.039-2.222,0.627-3.367c-0.412-1.159-1.416-2.021-2.611-2.235
		c-2.111-0.376-4.244-0.555-6.375-0.537c-3.008-0.036-6.014,0.338-8.934,1.128c-1.828,0.517-2.9,2.414-2.381,4.242
		C139.08,193.748,140.979,194.826,142.803,194.303L142.803,194.303z M142.803,194.303"/>
	<path fill="#41AF49" d="M177.174,189.867c2.309-0.61,4.691-0.917,7.07-0.881c1.719-0.02,3.438,0.13,5.119,0.432
		c1.219,0.215,2.451-0.215,3.24-1.164c0.807-0.931,1.039-2.217,0.627-3.383c-0.412-1.146-1.416-2.008-2.611-2.223
		c-2.111-0.376-4.244-0.555-6.375-0.537c-3.008-0.035-6.012,0.341-8.934,1.128c-1.828,0.523-2.898,2.422-2.381,4.245
		C173.451,189.312,175.35,190.385,177.174,189.867L177.174,189.867z M177.174,189.867"/>
	<path fill="#41AF49" d="M80.128,188.486c0.25,0.875,0.841,1.627,1.631,2.06c0.788,0.449,1.736,0.571,2.611,0.319
		c2.31-0.604,4.692-0.91,7.071-0.875c1.719-0.018,3.438,0.123,5.12,0.43c1.217,0.218,2.45-0.215,3.24-1.163
		c0.806-0.929,1.038-2.224,0.626-3.368c-0.411-1.159-1.416-2.021-2.611-2.236c-2.112-0.375-4.245-0.554-6.375-0.536
		c-3.008-0.035-6.013,0.338-8.933,1.128c-0.88,0.251-1.611,0.844-2.057,1.632C80.002,186.659,79.879,187.607,80.128,188.486
		L80.128,188.486z M80.128,188.486"/>
	<path fill="#41AF49" d="M42.32,191.924c0.251,0.875,0.842,1.627,1.632,2.059c0.787,0.45,1.736,0.573,2.611,0.32
		c2.309-0.604,4.692-0.911,7.07-0.875c1.719-0.018,3.438,0.123,5.12,0.43c1.218,0.217,2.45-0.215,3.24-1.164
		c0.806-0.928,1.038-2.222,0.627-3.367c-0.412-1.159-1.417-2.021-2.611-2.235c-2.112-0.376-4.245-0.555-6.376-0.537
		c-3.007-0.036-6.013,0.338-8.933,1.128c-0.879,0.25-1.611,0.844-2.057,1.631C42.195,190.096,42.072,191.045,42.32,191.924
		L42.32,191.924z M42.32,191.924"/>
</g>
</svg>
