<?xml version="1.0" encoding="utf-8"?>
<!-- Generator: Adobe Illustrator 16.0.4, SVG Export Plug-In . SVG Version: 6.00 Build 0)  -->
<!DOCTYPE svg PUBLIC "-//W3C//DTD SVG 1.1//EN" "http://www.w3.org/Graphics/SVG/1.1/DTD/svg11.dtd">
<svg version="1.1" id="Layer_1" xmlns="http://www.w3.org/2000/svg" xmlns:xlink="http://www.w3.org/1999/xlink" x="0px" y="0px"
	 width="229.489px" height="221.989px" viewBox="0 0 229.489 221.989" enable-background="new 0 0 229.489 221.989"
	 xml:space="preserve">
<path fill="#ABCF37" d="M206.085,9.863c-2.732-2.602-7.024-2.602-9.757,0l-35.761,35.785c-1.807,1.724-2.5,4.307-1.807,6.701
	L71.018,140.11c-2.953,2.953-3.83,7.396-2.225,11.251c-2.886,1.486-8.247,2.584-14.795-3.961l-9.722-9.721
	c-2.58-2.577-6.076-4.026-9.724-4.026c-3.645,0-7.141,1.449-9.721,4.026l-2.429,2.431l-9.722,9.722
	c-0.894,0.861-1.252,2.14-0.938,3.341c0.314,1.202,1.254,2.14,2.454,2.454c1.203,0.315,2.479-0.044,3.344-0.938l7.29-7.291
	l4.863,4.862l-7.292,7.293c-0.868,0.868-1.208,2.133-0.892,3.32c0.319,1.184,1.244,2.112,2.432,2.43
	c1.185,0.316,2.451-0.021,3.319-0.889l7.291-7.295l4.867,4.867l-7.295,7.29c-0.894,0.865-1.252,2.143-0.938,3.344
	c0.314,1.201,1.254,2.139,2.454,2.453c1.202,0.314,2.479-0.043,3.343-0.936l7.295-7.295l4.854,4.865l-7.282,7.293
	c-1.343,1.346-1.338,3.525,0.008,4.865c1.347,1.342,3.526,1.338,4.868-0.008L54,176.576l4.864,4.865l-7.292,7.281
	c-0.894,0.861-1.252,2.141-0.938,3.342s1.252,2.139,2.454,2.453c1.201,0.314,2.479-0.043,3.343-0.938l7.291-7.289l4.863,4.865
	l-7.292,7.291c-1.343,1.342-1.343,3.518,0.002,4.861c1.342,1.34,3.518,1.34,4.859-0.002l7.289-7.293l4.866,4.863l-7.292,7.291
	c-0.893,0.865-1.252,2.141-0.937,3.344c0.314,1.199,1.252,2.139,2.454,2.453c1.201,0.314,2.479-0.043,3.341-0.938l9.722-9.721
	l2.431-2.43c2.578-2.58,4.027-6.074,4.027-9.721c0-3.648-1.449-7.145-4.027-9.725l-9.721-9.723
	c-6.551-6.551-5.448-11.917-3.967-14.798c3.855,1.611,8.302,0.734,11.257-2.217l87.746-87.739c0.583,0.17,1.185,0.26,1.791,0.269
	c1.835,0.009,3.597-0.727,4.879-2.041l35.828-35.801c2.688-2.694,2.688-7.06,0-9.754L206.085,9.863z M73.447,176.576l9.722,9.727
	c1.29,1.289,2.014,3.037,2.014,4.861s-0.724,3.572-2.014,4.859l-17.01-17.01l-9.72-9.717l-9.713-9.732l-17.035-17.009
	c1.289-1.289,3.039-2.016,4.861-2.016c1.825,0,3.575,0.727,4.864,2.016l9.716,9.705c4.287,5.015,10.751,7.625,17.318,6.997
	C65.818,165.828,68.43,172.289,73.447,176.576L73.447,176.576z M80.74,149.842c-0.646,0.645-1.521,1.007-2.433,1.007
	c-0.911,0-1.786-0.362-2.432-1.007c-0.644-0.646-1.007-1.521-1.007-2.43c0-0.913,0.363-1.787,1.007-2.434l15.12-15.121l4.871,4.848
	L80.74,149.842z M100.728,129.841l-4.861-4.861l67.081-67.082l4.862,4.862L100.728,129.841z M210.986,24.52L175.12,60.312
	l-9.724-9.763l35.83-35.828l9.76,9.76V24.52z M210.986,24.52"/>
</svg>
