<?xml version="1.0" encoding="utf-8"?>
<!-- Generator: Adobe Illustrator 16.0.4, SVG Export Plug-In . SVG Version: 6.00 Build 0)  -->
<!DOCTYPE svg PUBLIC "-//W3C//DTD SVG 1.1//EN" "http://www.w3.org/Graphics/SVG/1.1/DTD/svg11.dtd">
<svg version="1.1" id="Layer_1" xmlns="http://www.w3.org/2000/svg" xmlns:xlink="http://www.w3.org/1999/xlink" x="0px" y="0px"
	 width="45.333px" height="45.333px" viewBox="0 0 45.333 45.333" enable-background="new 0 0 45.333 45.333" xml:space="preserve">
<g>
	<g>
		<circle fill="#41AF49" cx="22.667" cy="22.666" r="21.92"/>
	</g>
	<g>
		<path fill="#FFFFFF" d="M27.788,24.812l-0.01,0.069c-2.045-1.021-2.258-1.155-2.523-0.757c-0.182,0.272-0.717,0.896-0.877,1.08
			c-0.162,0.182-0.324,0.194-0.602,0.07c-0.277-0.141-1.173-0.435-2.233-1.383c-0.826-0.74-1.38-1.645-1.544-1.924
			c-0.272-0.471,0.298-0.538,0.816-1.521c0.094-0.193,0.046-0.349-0.022-0.485c-0.07-0.14-0.626-1.508-0.858-2.053
			c-0.223-0.543-0.452-0.476-0.624-0.476c-0.536-0.045-0.927-0.037-1.272,0.32c-1.5,1.65-1.122,3.353,0.162,5.162
			c2.523,3.303,3.868,3.911,6.326,4.755c0.666,0.21,1.27,0.182,1.748,0.111c0.535-0.084,1.643-0.669,1.875-1.324
			c0.236-0.655,0.236-1.202,0.168-1.327C28.249,25.007,28.065,24.937,27.788,24.812L27.788,24.812z M27.788,24.812"/>
		<path fill="#FFFFFF" d="M30.589,14.715c-7.15-6.91-18.982-1.899-18.986,7.851c0,1.951,0.51,3.852,1.483,5.529l-1.577,5.73
			l5.89-1.537c7.35,3.971,16.422-1.301,16.424-9.716c0-2.955-1.152-5.732-3.248-7.82L30.589,14.715z M31.966,22.541
			c-0.006,7.099-7.797,11.53-13.958,7.907l-0.334-0.199l-3.487,0.908l0.935-3.391l-0.222-0.348
			c-3.835-6.105,0.571-14.083,7.834-14.083c2.467,0,4.784,0.964,6.528,2.705C31.005,17.771,31.966,20.086,31.966,22.541
			L31.966,22.541z M31.966,22.541"/>
	</g>
</g>
</svg>
